<svg width="730" height="833" viewBox="0 0 730 833" fill="none" xmlns="http://www.w3.org/2000/svg">
<path d="M299 796.852V137.361L460.436 459.475L394.576 98C413.852 83.8623 427.774 26.776 432.325 0L662.03 61.8525C547.017 347.82 664.975 386.109 738.33 369.508L756 509.279L644.36 833L432.325 796.852H299Z" fill="#8076C1"/>
<path d="M258.255 0C237.844 40.6962 176.247 43.6031 148 39.9695V785.763H288.324L545.282 833L620 617.71L336.618 427.855L258.255 0Z" fill="#7F9DD3"/>
<path d="M0 134.715V793.144H121.229L342.152 833L407.551 639.298L161.106 475.089L457 507.771L434.668 374.651C259.206 381.665 313.706 169.789 362.888 62.9732L133.192 0C115.327 133.28 36.9535 145.343 0 134.715Z" fill="#DE7544"/>
</svg>
