<svg width="66" height="59" viewBox="0 0 66 59" fill="none" xmlns="http://www.w3.org/2000/svg">
<path d="M32.8 58.2C30.7733 56.3333 28.0267 54.0667 24.56 51.4C21.0933 48.68 18.1067 46.3067 15.6 44.28C13.1467 42.2533 10.6667 39.9333 8.16 37.32C5.65333 34.6533 3.73333 31.7733 2.4 28.68C1.06667 25.5867 0.4 22.28 0.4 18.76C0.4 13.2133 2.05333 8.70667 5.36 5.24C8.66667 1.77333 12.9867 0.039999 18.32 0.039999C21.84 0.039999 24.8533 0.866665 27.36 2.52C29.92 4.12 31.7333 6.38667 32.8 9.32C33.8667 6.38667 35.6533 4.12 38.16 2.52C40.72 0.866665 43.76 0.039999 47.28 0.039999C52.6133 0.039999 56.9333 1.77333 60.24 5.24C63.5467 8.70667 65.2 13.2133 65.2 18.76C65.2 22.28 64.5333 25.5867 63.2 28.68C61.8667 31.7733 59.9467 34.6533 57.44 37.32C54.9333 39.9333 52.4533 42.2533 50 44.28C47.5467 46.3067 44.56 48.68 41.04 51.4C37.5733 54.0667 34.8267 56.3333 32.8 58.2ZM32.8 51.48C33.92 50.52 35.7067 49.0533 38.16 47.08C40.6667 45.0533 42.5333 43.5333 43.76 42.52C45.04 41.4533 46.6667 40.0133 48.64 38.2C50.6667 36.3867 52.1867 34.84 53.2 33.56C54.2667 32.2267 55.36 30.7333 56.48 29.08C57.6533 27.3733 58.48 25.6933 58.96 24.04C59.44 22.3333 59.68 20.6267 59.68 18.92C59.68 14.8133 58.56 11.48 56.32 8.92C54.08 6.36 50.9867 5.08 47.04 5.08C44.0533 5.08 41.44 6.12 39.2 8.2C36.96 10.2267 35.4133 12.8667 34.56 16.12H31.04C30.24 12.8667 28.6933 10.2267 26.4 8.2C24.16 6.12 21.5467 5.08 18.56 5.08C14.6667 5.08 11.5733 6.36 9.28 8.92C7.04 11.48 5.92 14.8133 5.92 18.92C5.92 20.6267 6.16 22.3333 6.64 24.04C7.17333 25.6933 8 27.3733 9.12 29.08C10.24 30.7333 11.3333 32.2267 12.4 33.56C13.4667 34.8933 14.9867 36.44 16.96 38.2C18.9333 39.96 20.56 41.4 21.84 42.52C23.12 43.5867 24.96 45.1067 27.36 47.08C29.8133 49 31.6267 50.4667 32.8 51.48Z" fill="#FEFFF8"/>
</svg>
